<mxfile host="app.diagrams.net" agent="Mozilla/5.0 (Windows NT 10.0; Win64; x64) AppleWebKit/537.36 (KHTML, like Gecko) Chrome/131.0.0.0 Safari/537.36" version="25.0.3">
  <diagram name="ページ1" id="uoetsJU3STwym8J0wEcv">
    <mxGraphModel dx="794" dy="458" grid="1" gridSize="10" guides="1" tooltips="1" connect="1" arrows="1" fold="1" page="1" pageScale="1" pageWidth="1169" pageHeight="827" math="0" shadow="0">
      <root>
        <mxCell id="0" />
        <mxCell id="1" parent="0" />
        <mxCell id="Efmdm_4t0DVTrgAJnde1-5" style="edgeStyle=orthogonalEdgeStyle;rounded=0;orthogonalLoop=1;jettySize=auto;html=1;exitX=0.5;exitY=1;exitDx=0;exitDy=0;entryX=0.5;entryY=0;entryDx=0;entryDy=0;" edge="1" parent="1" source="Efmdm_4t0DVTrgAJnde1-1" target="Efmdm_4t0DVTrgAJnde1-2">
          <mxGeometry relative="1" as="geometry" />
        </mxCell>
        <mxCell id="Efmdm_4t0DVTrgAJnde1-1" value="予約開始" style="rounded=1;whiteSpace=wrap;html=1;" vertex="1" parent="1">
          <mxGeometry x="525" y="30" width="120" height="60" as="geometry" />
        </mxCell>
        <mxCell id="Efmdm_4t0DVTrgAJnde1-6" style="edgeStyle=orthogonalEdgeStyle;rounded=0;orthogonalLoop=1;jettySize=auto;html=1;exitX=0.5;exitY=1;exitDx=0;exitDy=0;entryX=0.5;entryY=0;entryDx=0;entryDy=0;" edge="1" parent="1" source="Efmdm_4t0DVTrgAJnde1-2" target="Efmdm_4t0DVTrgAJnde1-3">
          <mxGeometry relative="1" as="geometry" />
        </mxCell>
        <mxCell id="Efmdm_4t0DVTrgAJnde1-15" value="" style="edgeStyle=orthogonalEdgeStyle;rounded=0;orthogonalLoop=1;jettySize=auto;html=1;exitX=0;exitY=0.5;exitDx=0;exitDy=0;" edge="1" parent="1" source="Efmdm_4t0DVTrgAJnde1-3" target="Efmdm_4t0DVTrgAJnde1-14">
          <mxGeometry relative="1" as="geometry" />
        </mxCell>
        <mxCell id="Efmdm_4t0DVTrgAJnde1-2" value="予約情報を取得" style="rounded=0;whiteSpace=wrap;html=1;" vertex="1" parent="1">
          <mxGeometry x="525" y="120" width="120" height="60" as="geometry" />
        </mxCell>
        <mxCell id="Efmdm_4t0DVTrgAJnde1-7" style="edgeStyle=orthogonalEdgeStyle;rounded=0;orthogonalLoop=1;jettySize=auto;html=1;exitX=0.5;exitY=1;exitDx=0;exitDy=0;entryX=0.5;entryY=0;entryDx=0;entryDy=0;" edge="1" parent="1" source="Efmdm_4t0DVTrgAJnde1-3" target="Efmdm_4t0DVTrgAJnde1-4">
          <mxGeometry relative="1" as="geometry" />
        </mxCell>
        <mxCell id="Efmdm_4t0DVTrgAJnde1-3" value="予約日時が現在より後か" style="rhombus;whiteSpace=wrap;html=1;" vertex="1" parent="1">
          <mxGeometry x="500" y="210" width="170" height="80" as="geometry" />
        </mxCell>
        <mxCell id="Efmdm_4t0DVTrgAJnde1-10" style="edgeStyle=orthogonalEdgeStyle;rounded=0;orthogonalLoop=1;jettySize=auto;html=1;exitX=0.5;exitY=1;exitDx=0;exitDy=0;entryX=0.5;entryY=0;entryDx=0;entryDy=0;" edge="1" parent="1" source="Efmdm_4t0DVTrgAJnde1-4" target="Efmdm_4t0DVTrgAJnde1-9">
          <mxGeometry relative="1" as="geometry" />
        </mxCell>
        <mxCell id="Efmdm_4t0DVTrgAJnde1-4" value="店舗の営業時間を取得" style="rounded=0;whiteSpace=wrap;html=1;" vertex="1" parent="1">
          <mxGeometry x="520" y="320" width="130" height="60" as="geometry" />
        </mxCell>
        <mxCell id="Efmdm_4t0DVTrgAJnde1-8" value="Yes" style="text;html=1;align=center;verticalAlign=middle;resizable=0;points=[];autosize=1;strokeColor=none;fillColor=none;" vertex="1" parent="1">
          <mxGeometry x="580" y="288" width="40" height="30" as="geometry" />
        </mxCell>
        <mxCell id="Efmdm_4t0DVTrgAJnde1-12" style="edgeStyle=orthogonalEdgeStyle;rounded=0;orthogonalLoop=1;jettySize=auto;html=1;exitX=0.5;exitY=1;exitDx=0;exitDy=0;" edge="1" parent="1" source="Efmdm_4t0DVTrgAJnde1-9" target="Efmdm_4t0DVTrgAJnde1-11">
          <mxGeometry relative="1" as="geometry" />
        </mxCell>
        <mxCell id="Efmdm_4t0DVTrgAJnde1-19" value="" style="edgeStyle=orthogonalEdgeStyle;rounded=0;orthogonalLoop=1;jettySize=auto;html=1;entryX=0.5;entryY=0;entryDx=0;entryDy=0;exitX=1;exitY=0.5;exitDx=0;exitDy=0;" edge="1" parent="1" source="Efmdm_4t0DVTrgAJnde1-9" target="Efmdm_4t0DVTrgAJnde1-18">
          <mxGeometry relative="1" as="geometry">
            <Array as="points">
              <mxPoint x="810" y="460" />
            </Array>
          </mxGeometry>
        </mxCell>
        <mxCell id="Efmdm_4t0DVTrgAJnde1-9" value="予約日時が営業時間内か" style="rhombus;whiteSpace=wrap;html=1;" vertex="1" parent="1">
          <mxGeometry x="500" y="420" width="170" height="80" as="geometry" />
        </mxCell>
        <mxCell id="Efmdm_4t0DVTrgAJnde1-11" value="予約終了" style="rounded=1;whiteSpace=wrap;html=1;" vertex="1" parent="1">
          <mxGeometry x="525" y="540" width="120" height="60" as="geometry" />
        </mxCell>
        <mxCell id="Efmdm_4t0DVTrgAJnde1-13" value="Yes" style="text;html=1;align=center;verticalAlign=middle;resizable=0;points=[];autosize=1;strokeColor=none;fillColor=none;" vertex="1" parent="1">
          <mxGeometry x="580" y="508" width="40" height="30" as="geometry" />
        </mxCell>
        <mxCell id="Efmdm_4t0DVTrgAJnde1-16" style="edgeStyle=orthogonalEdgeStyle;rounded=0;orthogonalLoop=1;jettySize=auto;html=1;exitX=0.5;exitY=1;exitDx=0;exitDy=0;entryX=0;entryY=0.5;entryDx=0;entryDy=0;" edge="1" parent="1" source="Efmdm_4t0DVTrgAJnde1-14" target="Efmdm_4t0DVTrgAJnde1-11">
          <mxGeometry relative="1" as="geometry" />
        </mxCell>
        <mxCell id="Efmdm_4t0DVTrgAJnde1-14" value="エラー表示" style="whiteSpace=wrap;html=1;rounded=0;" vertex="1" parent="1">
          <mxGeometry x="320" y="478" width="120" height="60" as="geometry" />
        </mxCell>
        <mxCell id="Efmdm_4t0DVTrgAJnde1-17" value="No" style="text;html=1;align=center;verticalAlign=middle;resizable=0;points=[];autosize=1;strokeColor=none;fillColor=none;" vertex="1" parent="1">
          <mxGeometry x="430" y="220" width="40" height="30" as="geometry" />
        </mxCell>
        <mxCell id="Efmdm_4t0DVTrgAJnde1-21" style="edgeStyle=orthogonalEdgeStyle;rounded=0;orthogonalLoop=1;jettySize=auto;html=1;exitX=0.5;exitY=1;exitDx=0;exitDy=0;entryX=1;entryY=0.5;entryDx=0;entryDy=0;" edge="1" parent="1" source="Efmdm_4t0DVTrgAJnde1-18" target="Efmdm_4t0DVTrgAJnde1-11">
          <mxGeometry relative="1" as="geometry" />
        </mxCell>
        <mxCell id="Efmdm_4t0DVTrgAJnde1-18" value="エラー表示" style="whiteSpace=wrap;html=1;" vertex="1" parent="1">
          <mxGeometry x="750" y="478" width="120" height="60" as="geometry" />
        </mxCell>
        <mxCell id="Efmdm_4t0DVTrgAJnde1-22" value="No" style="text;html=1;align=center;verticalAlign=middle;resizable=0;points=[];autosize=1;strokeColor=none;fillColor=none;" vertex="1" parent="1">
          <mxGeometry x="710" y="438" width="40" height="30" as="geometry" />
        </mxCell>
      </root>
    </mxGraphModel>
  </diagram>
</mxfile>
